<?xml version="1.0" encoding="UTF-8" standalone="no"?>
<!-- Created with Inkscape (http://www.inkscape.org/) -->

<svg
   width="50.231148mm"
   height="15.623646mm"
   viewBox="0 0 50.231148 15.623646"
   version="1.1"
   id="svg5"
   xml:space="preserve"
   inkscape:version="1.2.1 (9c6d41e410, 2022-07-14)"
   sodipodi:docname="logo.svg"
   inkscape:export-filename="logo.svg"
   inkscape:export-xdpi="100"
   inkscape:export-ydpi="100"
   xmlns:inkscape="http://www.inkscape.org/namespaces/inkscape"
   xmlns:sodipodi="http://sodipodi.sourceforge.net/DTD/sodipodi-0.dtd"
   xmlns="http://www.w3.org/2000/svg"
   xmlns:svg="http://www.w3.org/2000/svg"><sodipodi:namedview
     id="namedview7"
     pagecolor="#ffffff"
     bordercolor="#000000"
     borderopacity="0.25"
     inkscape:showpageshadow="2"
     inkscape:pageopacity="0.0"
     inkscape:pagecheckerboard="0"
     inkscape:deskcolor="#d1d1d1"
     inkscape:document-units="mm"
     showgrid="false"
     inkscape:zoom="1.5429574"
     inkscape:cx="116.65909"
     inkscape:cy="42.450947"
     inkscape:window-width="1920"
     inkscape:window-height="1056"
     inkscape:window-x="0"
     inkscape:window-y="0"
     inkscape:window-maximized="1"
     inkscape:current-layer="layer1" /><defs
     id="defs2" /><g
     inkscape:label="Calque 1"
     inkscape:groupmode="layer"
     id="layer1"><g
       id="g225"
       style="image-rendering:optimizeQuality"><title
         id="title401">logo</title><g
         style="fill:none"
         id="g30"
         transform="scale(0.82225229,0.82229715)"><path
           d="M 5.52161,0 C 6.57874,0.0188771 7.50373,0.264282 8.29657,0.736214 9.08942,1.20815 9.69349,1.84054 10.1088,2.63338 c 0.4342,0.79285 0.6513,1.68952 0.6513,2.69002 0,0.73621 -0.1416,1.43467 -0.4248,2.09538 -0.2643,0.64183 -0.63237,1.21758 -1.1043,1.72727 0.67958,0.50969 1.2081,1.14205 1.5857,1.89715 0.3964,0.7551 0.5946,1.5857 0.5946,2.4918 0,0.9628 -0.2359,1.85 -0.7079,2.6617 -0.4719,0.8117 -1.10429,1.463 -1.89714,1.9538 -0.79285,0.472 -1.67064,0.7079 -2.63338,0.7079 H 0 V 0 Z M 2.4918,2.54843 v 5.60656 h 3.02981 c 0.77397,0 1.42523,-0.27372 1.9538,-0.82116 C 8.00397,6.78639 8.26826,6.11624 8.26826,5.3234 8.26826,4.53055 8.00397,3.86985 7.47541,3.34128 6.96572,2.81272 6.31446,2.54843 5.52161,2.54843 Z m 0,8.15497 V 16.31 h 3.68108 c 0.77396,0 1.42523,-0.2643 1.9538,-0.7929 0.52856,-0.5474 0.79284,-1.2081 0.79284,-1.9821 0,-0.7928 -0.26428,-1.463 -0.79284,-2.0104 -0.52857,-0.5475 -1.17984,-0.8212 -1.9538,-0.8212 z"
           fill="#0065fc"
           id="path9" /><path
           d="m 20.8452,19 c -0.9628,0 -1.8783,-0.1888 -2.7467,-0.5663 -0.8683,-0.3776 -1.6329,-0.8967 -2.2936,-1.5574 -0.6607,-0.6607 -1.1798,-1.4252 -1.5573,-2.2936 -0.3776,-0.8683 -0.5664,-1.7839 -0.5664,-2.7466 0,-0.9817 0.1888,-1.91608 0.5664,-2.80331 0.3775,-0.88724 0.8966,-1.66121 1.5573,-2.32191 0.6607,-0.66071 1.4253,-1.17039 2.2936,-1.52906 0.8684,-0.37755 1.7839,-0.56632 2.7467,-0.56632 0.9816,0 1.916,0.18877 2.8033,0.56632 0.8872,0.35867 1.6612,0.86835 2.3219,1.52906 0.6607,0.6607 1.1704,1.43467 1.529,2.32191 0.3776,0.88723 0.5663,1.82161 0.5663,2.80331 0,0.9627 -0.1887,1.8783 -0.5663,2.7466 -0.3586,0.8684 -0.8683,1.6329 -1.529,2.2936 -0.6607,0.6607 -1.4347,1.1798 -2.3219,1.5574 C 22.7612,18.8112 21.8268,19 20.8452,19 Z m 0,-11.86438 c -1.2648,0 -2.3502,0.45305 -3.2564,1.35916 -0.4341,0.43418 -0.7739,0.94387 -1.0193,1.52902 -0.2454,0.5852 -0.3681,1.1893 -0.3681,1.8123 0,0.6229 0.1227,1.2176 0.3681,1.7839 0.2454,0.5663 0.5852,1.0665 1.0193,1.5007 0.4342,0.4342 0.925,0.774 1.4725,1.0194 0.5663,0.2454 1.1609,0.3681 1.7839,0.3681 0.6229,0 1.227,-0.1227 1.8122,-0.3681 0.5852,-0.2454 1.0854,-0.5852 1.5007,-1.0194 0.4153,-0.4342 0.7457,-0.9344 0.9911,-1.5007 0.2454,-0.5663 0.3681,-1.161 0.3681,-1.7839 0,-0.623 -0.1227,-1.2271 -0.3681,-1.8123 C 24.9038,9.43865 24.5734,8.92896 24.1581,8.49478 23.7428,8.06061 23.2426,7.73025 22.6574,7.50373 22.0911,7.25832 21.487,7.13562 20.8452,7.13562 Z"
           fill="#0065fc"
           id="path11" /><path
           d="m 36.9388,19 c -0.9627,0 -1.8783,-0.1888 -2.7466,-0.5663 -0.8684,-0.3776 -1.6329,-0.8967 -2.2936,-1.5574 -0.6607,-0.6607 -1.1799,-1.4252 -1.5574,-2.2936 -0.3776,-0.8683 -0.5663,-1.7839 -0.5663,-2.7466 0,-0.9817 0.1887,-1.91608 0.5663,-2.80331 0.3775,-0.88724 0.8967,-1.66121 1.5574,-2.32191 0.6607,-0.66071 1.4252,-1.17039 2.2936,-1.52906 0.8683,-0.37755 1.7839,-0.56632 2.7466,-0.56632 0.9816,0 1.9161,0.18877 2.8033,0.56632 0.8872,0.35867 1.6612,0.86835 2.3219,1.52906 0.6607,0.6607 1.1704,1.43467 1.5291,2.32191 0.3775,0.88723 0.5663,1.82161 0.5663,2.80331 0,0.9627 -0.1888,1.8783 -0.5663,2.7466 -0.3587,0.8684 -0.8684,1.6329 -1.5291,2.2936 -0.6607,0.6607 -1.4347,1.1798 -2.3219,1.5574 C 38.8549,18.8112 37.9204,19 36.9388,19 Z m 0,-11.86438 c -1.2648,0 -2.3502,0.45305 -3.2563,1.35916 -0.4342,0.43418 -0.774,0.94387 -1.0194,1.52902 -0.2454,0.5852 -0.3681,1.1893 -0.3681,1.8123 0,0.6229 0.1227,1.2176 0.3681,1.7839 0.2454,0.5663 0.5852,1.0665 1.0194,1.5007 0.4342,0.4342 0.925,0.774 1.4724,1.0194 0.5663,0.2454 1.161,0.3681 1.7839,0.3681 0.623,0 1.227,-0.1227 1.8122,-0.3681 0.5852,-0.2454 1.0855,-0.5852 1.5008,-1.0194 0.4153,-0.4342 0.7456,-0.9344 0.991,-1.5007 0.2454,-0.5663 0.3681,-1.161 0.3681,-1.7839 0,-0.623 -0.1227,-1.2271 -0.3681,-1.8123 C 40.9974,9.43865 40.6671,8.92896 40.2518,8.49478 39.8365,8.06061 39.3362,7.73025 38.751,7.50373 38.1847,7.25832 37.5806,7.13562 36.9388,7.13562 Z"
           fill="#0065fc"
           id="path13" /><path
           d="M 53.5005,18.8584 49.1965,13.62 v 5.2384 H 46.7047 V 0.0283154 h 2.4918 V 8.15499 l 3.851,-3.62444 h 3.7094 l -6.7109,6.22955 6.7392,8.0983 z"
           fill="#0065fc"
           id="path15" /><path
           d="m 59.7871,2.6617 c -0.3586,0 -0.6701,-0.1227 -0.9344,-0.36811 -0.2454,-0.26428 -0.3681,-0.57576 -0.3681,-0.93443 0,-0.35866 0.1227,-0.6607 0.3681,-0.906106 0.2643,-0.264282 0.5758,-0.3964228 0.9344,-0.3964228 0.3587,0 0.6607,0.1321408 0.9061,0.3964228 0.2643,0.245406 0.3965,0.547446 0.3965,0.906106 0,0.35867 -0.1322,0.67015 -0.3965,0.93443 C 60.4478,2.539 60.1458,2.6617 59.7871,2.6617 Z M 58.6262,18.8584 V 4.70045 h 2.3785 V 18.8584 Z"
           fill="#0065fc"
           id="path17" /></g><g
         style="fill:none"
         id="g41"
         transform="matrix(0.26458333,0,0,0.26458333,29.220583,6.8797196)"><circle
           cx="4.5"
           cy="5.1079102"
           r="4.5"
           fill="#0065fc"
           id="circle32" /></g><g
         style="fill:none"
         id="g52"
         transform="matrix(0.8222696,0,0,0.82226976,28.778332,7.4009443)"><path
           d="M 0.537842,5.67539 1.23686,0.527039 H 2.83463 L 3.43379,5.67539 Z"
           fill="#0065fc"
           id="path43" /></g></g></g></svg>
